# Blender v2.93.0 OBJ File: 'asteroid.blend'
# www.blender.org
mtllib testrock.mtl
o Cube
v 0.484710 1.695642 -2.335175
v 0.250787 -0.308724 -0.954555
v 0.850029 1.602434 1.642766
v 1.232364 -0.884930 1.857029
v -2.078735 2.033063 -1.001177
v -1.508613 -1.754141 -0.414156
v -0.994221 1.982123 1.649558
v -1.754517 -1.084537 1.399036
v -0.298879 2.849018 -0.076160
v -0.628027 0.501020 2.407407
v -2.723423 0.184630 0.226982
v 1.396703 0.656059 0.155915
v -1.166808 0.436157 -1.855096
v -0.240001 -1.768016 0.414016
vt 0.545423 0.419318
vt 0.370655 0.247709
vt 0.545423 0.195826
vt 0.315299 0.363424
vt 0.315299 0.564151
vt 0.132322 0.540961
vt 0.369809 0.362578
vt 0.132322 0.240941
vt 0.369809 0.195826
vt 0.854249 0.846122
vt 0.979939 0.694403
vt 0.979939 0.867825
vt 0.898209 0.451186
vt 0.779260 0.348740
vt 0.898209 0.195826
vt 0.108874 0.337662
vt 0.108874 0.663856
vt 0.000423 0.532043
vt 0.710153 0.173225
vt 0.528408 0.158925
vt 0.710153 0.000423
vt 0.471056 0.757403
vt 0.471056 0.915923
vt 0.303727 0.800547
vt 0.131476 0.000423
vt 0.131476 0.336817
vt 0.000423 0.155780
vt 0.094548 0.931527
vt 0.000423 0.772910
vt 0.094548 0.664701
vt 0.861690 0.070855
vt 0.986622 0.000423
vt 0.986622 0.168428
vt 0.281152 0.777627
vt 0.132322 0.699684
vt 0.281152 0.564996
vt 0.353300 0.194980
vt 0.132322 0.096979
vt 0.353300 0.000423
vt 0.657271 0.195826
vt 0.657271 0.522019
vt 0.546268 0.355609
vt 0.132322 0.822552
vt 0.290325 0.778473
vt 0.290325 0.945225
vt 0.515202 0.782511
vt 0.701554 0.729554
vt 0.701554 0.884906
vt 0.471056 0.756558
vt 0.370655 0.638008
vt 0.471056 0.420164
vt 0.701554 0.728708
vt 0.546268 0.545889
vt 0.701554 0.522864
vt 0.881822 0.522864
vt 0.881822 0.693558
vt 0.702400 0.526820
vt 0.860844 0.179888
vt 0.710999 0.038758
vt 0.860844 0.000423
vt 0.853404 0.694403
vt 0.853404 0.891423
vt 0.702400 0.727888
vt 0.527562 0.189235
vt 0.354146 0.187868
vt 0.527562 0.000423
vt 0.778415 0.195826
vt 0.778414 0.450777
vt 0.658117 0.341355
vt 0.999577 0.522864
vt 0.999577 0.686901
vt 0.882668 0.635899
vn -0.1409 0.8611 -0.4885
vn -0.1013 -0.4816 0.8705
vn -0.7002 0.1160 0.7045
vn 0.3868 -0.6967 -0.6042
vn 0.7822 -0.4974 -0.3750
vn -0.8357 -0.2048 -0.5095
vn -0.4987 0.8383 0.2202
vn 0.1767 0.8491 0.4977
vn 0.7715 0.6338 -0.0560
vn -0.7606 0.1367 0.6347
vn 0.1006 0.4728 0.8754
vn 0.3731 0.1364 0.9177
vn -0.7974 0.5013 0.3359
vn -0.6981 -0.2111 -0.6842
vn -0.8302 -0.5501 0.0906
vn 0.9551 0.1678 0.2443
vn 0.8191 0.5703 -0.0619
vn 0.7889 -0.4084 -0.4592
vn -0.4263 0.2250 -0.8761
vn 0.2047 -0.5713 -0.7948
vn 0.2142 -0.5600 -0.8004
vn 0.7174 -0.5895 -0.3713
vn -0.0269 -0.8402 0.5416
vn -0.2142 -0.9254 0.3127
usemtl Material.001
s off
f 1/1/1 5/2/1 9/3/1
f 4/4/2 10/5/2 8/6/2
f 8/7/3 7/8/3 11/9/3
f 6/10/4 2/11/4 14/12/4
f 2/13/5 12/14/5 4/15/5
f 6/16/6 5/17/6 13/18/6
f 9/19/7 5/20/7 7/21/7
f 7/22/8 3/23/8 9/24/8
f 3/25/9 1/26/9 9/27/9
f 8/28/10 10/29/10 7/30/10
f 7/31/11 10/32/11 3/33/11
f 3/34/12 10/35/12 4/36/12
f 11/37/13 7/38/13 5/39/13
f 5/40/14 6/41/14 11/42/14
f 6/43/15 8/44/15 11/45/15
f 4/46/16 12/47/16 3/48/16
f 3/49/17 12/50/17 1/51/17
f 1/52/18 12/53/18 2/54/18
f 13/55/19 5/56/19 1/57/19
f 1/58/20 2/59/20 13/60/20
f 2/61/21 6/62/21 13/63/21
f 14/64/22 2/65/22 4/66/22
f 4/67/23 8/68/23 14/69/23
f 8/70/24 6/71/24 14/72/24
